<?xml version="1.0" encoding="UTF-8"?>
<!DOCTYPE svg PUBLIC "-//W3C//DTD SVG Tiny PS//EN" "http://www.w3.org/Graphics/SVG/1.2/DTD/svg12-tinypsvg.dtd">
<svg version="1.2" baseProfile="tiny-ps"
     xmlns="http://www.w3.org/2000/svg"
     viewBox="0 0 1000 1000"
     width="1000" height="1000">
  <title>Classfy</title>
  <rect width="1000" height="1000" fill="#000000"/>
  <path fill="#ffffff" d="M513.1633986928105 880.0Q415.80392156862746 880.0 339.3071895424837 834.7973856209151Q262.81045751633985 789.59477124183 218.60130718954247 704.6535947712418Q174.39215686274508 619.7124183006536 174.39215686274508 500.4967320261438Q174.39215686274508 380.78431372549016 218.84967320261438 295.59477124183Q263.3071895424837 210.40522875816987 339.80392156862746 165.20261437908493Q416.30065359477123 120.0 513.1633986928105 120.0Q594.1307189542483 120.0 660.4444444444443 150.30065359477123Q726.7581699346405 180.60130718954247 769.9738562091503 237.9738562091503Q813.1895424836601 295.34640522875816 825.1111111111111 376.313725490196H691.4901960784314Q679.0718954248366 310.7450980392157 630.3921568627451 274.73202614379085Q581.7124183006536 238.718954248366 515.1503267973856 238.718954248366Q424.24836601307186 238.718954248366 365.88235294117646 306.5228758169934Q307.51633986928107 374.32679738562086 307.51633986928107 500.4967320261438Q307.51633986928107 628.156862745098 366.1307189542484 694.718954248366Q424.7450980392157 761.281045751634 514.6535947712418 761.281045751634Q581.2156862745098 761.281045751634 630.1437908496732 725.2679738562092Q679.0718954248366 689.2549019607843 691.4901960784314 623.6862745098039H825.6078431372549Q815.1764705882352 694.718954248366 774.4444444444443 752.8366013071895Q733.7124183006536 810.9542483660131 667.1503267973856 845.4771241830065Q600.5882352941176 880.0 513.1633986928105 880.0Z"/>
</svg>